<?xml version="1.0" encoding="UTF-8"?><svg xmlns="http://www.w3.org/2000/svg" xmlns:xlink="http://www.w3.org/1999/xlink" fill-opacity="1" color-rendering="auto" color-interpolation="auto" text-rendering="auto" stroke="black" stroke-linecap="square" width="1013" stroke-miterlimit="10" shape-rendering="auto" stroke-opacity="1" fill="black" stroke-dasharray="none" font-weight="normal" stroke-width="1" height="975" font-family="'Dialog'" font-style="normal" stroke-linejoin="miter" font-size="12px" stroke-dashoffset="0" image-rendering="auto">
  <!--Generated by ySVG 2.5-->
  <defs id="genericDefs"/>
  <g>
    <defs id="defs1">
      <clipPath clipPathUnits="userSpaceOnUse" id="clipPath1">
        <path d="M0 0 L1013 0 L1013 975 L0 975 L0 0 Z"/>
      </clipPath>
      <clipPath clipPathUnits="userSpaceOnUse" id="clipPath2">
        <path d="M-3204 -528 L-2003.7748 -528 L-2003.7748 627.202 L-3204 627.202 L-3204 -528 Z"/>
      </clipPath>
      <clipPath clipPathUnits="userSpaceOnUse" id="clipPath3">
        <path d="M-3110 -93 L-3110 99 L-2585 99 L-2585 -93 Z"/>
      </clipPath>
      <clipPath clipPathUnits="userSpaceOnUse" id="clipPath4">
        <path d="M-3110 154 L-3110 275 L-2585 275 L-2585 154 Z"/>
      </clipPath>
      <clipPath clipPathUnits="userSpaceOnUse" id="clipPath5">
        <path d="M-2533 -28 L-2533 35 L-2082 35 L-2082 -28 Z"/>
      </clipPath>
      <clipPath clipPathUnits="userSpaceOnUse" id="clipPath6">
        <path d="M-3073 -170 L-3073 -143 L-2895 -143 L-2895 -170 Z"/>
      </clipPath>
      <clipPath clipPathUnits="userSpaceOnUse" id="clipPath7">
        <path d="M-2799 -170 L-2799 -143 L-2621 -143 L-2621 -170 Z"/>
      </clipPath>
    </defs>
    <g fill="white" text-rendering="geometricPrecision" shape-rendering="geometricPrecision" transform="scale(0.844,0.844) translate(3204,528)" stroke="white">
      <rect x="-3204" width="1201" height="1156" y="-528" clip-path="url(#clipPath2)" stroke="none"/>
    </g>
    <g text-rendering="geometricPrecision" stroke-miterlimit="1.45" shape-rendering="geometricPrecision" transform="matrix(0.844,0,0,0.844,2704.2025,445.6364)" stroke-linecap="butt">
      <rect fill="none" x="-3110.2687" width="525.7441" height="192.6643" y="-93.7848" clip-path="url(#clipPath2)"/>
      <text x="-2884.425" xml:space="preserve" y="-76.7204" clip-path="url(#clipPath3)" font-family="sans-serif" stroke="none">&lt;&lt;interface&gt;&gt;</text>
      <text x="-2919.6299" font-size="13px" y="-52.0138" clip-path="url(#clipPath3)" font-family="sans-serif" stroke="none" font-weight="bold" xml:space="preserve">IShortcutStructureView</text>
      <line stroke-linecap="square" clip-path="url(#clipPath3)" fill="none" x1="-3109" x2="-2585" y1="-44" y2="-44" stroke-miterlimit="10"/>
      <line stroke-linecap="square" clip-path="url(#clipPath3)" fill="none" x1="-3109" x2="-2585" y1="-34" y2="-34" stroke-miterlimit="10"/>
      <text x="-3105.2688" xml:space="preserve" y="-17.0929" clip-path="url(#clipPath3)" font-family="sans-serif" stroke="none">+ setModelGroup(pGroup : IEditorShortcutGroup) : void</text>
      <text x="-3105.2688" xml:space="preserve" y="-2.3918" clip-path="url(#clipPath3)" font-family="sans-serif" stroke="none">+ getModelGroup() : IEditorShortcutGroup</text>
      <text x="-3105.2688" xml:space="preserve" y="12.3094" clip-path="url(#clipPath3)" font-family="sans-serif" stroke="none">+ setModelPath(pPath : AditoTreePath) : void</text>
      <text x="-3105.2688" xml:space="preserve" y="27.0106" clip-path="url(#clipPath3)" font-family="sans-serif" stroke="none">+ getModelPath() : IEditorShortcutGroup</text>
      <text x="-3105.2688" xml:space="preserve" y="41.7118" clip-path="url(#clipPath3)" font-family="sans-serif" stroke="none">+ addPathChangeListener(pChangeListener : IAditoPathChangeListener) : void</text>
      <text x="-3105.2688" xml:space="preserve" y="56.4129" clip-path="url(#clipPath3)" font-family="sans-serif" stroke="none">+ removePathChangeListener(pChangeListener : IAditoPathChangeListener) : void</text>
      <text x="-3105.2688" xml:space="preserve" y="71.1141" clip-path="url(#clipPath3)" font-family="sans-serif" stroke="none">+ addGroupChangeListener(pGroup : IGroupChangeListener) : void</text>
      <text x="-3105.2688" xml:space="preserve" y="85.8153" clip-path="url(#clipPath3)" font-family="sans-serif" stroke="none">+ removeGroupChangeListener(pGroup : IGroupChangeListener) : void</text>
      <rect fill="none" x="-3110.2687" width="525.7441" height="121.575" y="154.6181" clip-path="url(#clipPath2)"/>
      <text x="-2934.0676" font-size="13px" y="172.6879" clip-path="url(#clipPath4)" font-family="sans-serif" stroke="none" font-weight="bold" xml:space="preserve">ShortcutStructureController</text>
      <line stroke-linecap="square" clip-path="url(#clipPath4)" fill="none" x1="-3109" x2="-2585" y1="180" y2="180" stroke-miterlimit="10"/>
      <text x="-3105.2688" xml:space="preserve" y="197.6088" clip-path="url(#clipPath4)" font-family="sans-serif" stroke="none">model : ShortcutStructureModel</text>
      <text x="-3105.2688" xml:space="preserve" y="212.31" clip-path="url(#clipPath4)" font-family="sans-serif" stroke="none">views : List&lt;IShortcutStructureView&gt;</text>
      <line stroke-linecap="square" clip-path="url(#clipPath4)" fill="none" x1="-3109" x2="-2585" y1="219" y2="219" stroke-miterlimit="10"/>
      <text x="-3105.2688" xml:space="preserve" y="237.0112" clip-path="url(#clipPath4)" font-family="sans-serif" stroke="none">ShortcutStructureController(pModel : ShortcutStructureModel, pViews : IShortcutStructureView[])</text>
      <text x="-3105.2688" xml:space="preserve" y="251.7124" clip-path="url(#clipPath4)" font-family="sans-serif" stroke="none">addView(pView : IShortcutStructureView) : void</text>
      <text x="-3105.2688" xml:space="preserve" y="266.4135" clip-path="url(#clipPath4)" font-family="sans-serif" stroke="none">removeView(pView : IShortcutStructureView) : void</text>
      <rect fill="none" x="-2533.0576" width="451.432" height="63.0448" y="-28.975" clip-path="url(#clipPath2)"/>
      <text x="-2381.7329" font-size="13px" y="-10.9052" clip-path="url(#clipPath5)" font-family="sans-serif" stroke="none" font-weight="bold" xml:space="preserve">ShortcutStructureModel</text>
      <line stroke-linecap="square" clip-path="url(#clipPath5)" fill="none" x1="-2532" x2="-2082" y1="-3" y2="-3" stroke-miterlimit="10"/>
      <line stroke-linecap="square" clip-path="url(#clipPath5)" fill="none" x1="-2532" x2="-2082" y1="6" y2="6" stroke-miterlimit="10"/>
      <text x="-2528.0576" xml:space="preserve" y="24.0157" clip-path="url(#clipPath5)" font-family="sans-serif" stroke="none">...</text>
      <rect fill="none" x="-3073.1127" width="178.0231" height="27.5001" y="-170.4833" clip-path="url(#clipPath2)"/>
      <text x="-3061.0125" font-size="13px" y="-152.4135" clip-path="url(#clipPath6)" font-family="sans-serif" stroke="none" font-weight="bold" xml:space="preserve">ShortcutPathComponent</text>
      <rect fill="none" x="-2799.7038" width="178.0231" height="27.5001" y="-170.4833" clip-path="url(#clipPath2)"/>
      <text x="-2783.2839" font-size="13px" y="-152.4135" clip-path="url(#clipPath7)" font-family="sans-serif" stroke="none" font-weight="bold" xml:space="preserve">ShortcutStructureTable</text>
      <path fill="none" d="M-2847.3967 147.6298 L-2847.3967 98.8984" clip-path="url(#clipPath2)"/>
      <path fill="white" d="M-2847.3967 154.6298 L-2852.3967 147.6298 L-2847.3967 140.6298 L-2842.3967 147.6298 Z" clip-path="url(#clipPath2)" stroke="none"/>
      <path fill="none" d="M-2847.3967 154.6298 L-2852.3967 147.6298 L-2847.3967 140.6298 L-2842.3967 147.6298 Z" clip-path="url(#clipPath2)"/>
      <path fill="none" d="M-2577.522 215.4056 L-2307.3416 215.4056 L-2307.3416 34.0655" clip-path="url(#clipPath2)"/>
      <path fill="white" d="M-2584.522 215.4056 L-2577.522 210.4056 L-2570.522 215.4056 L-2577.522 220.4056 Z" clip-path="url(#clipPath2)" stroke="none"/>
      <path fill="none" d="M-2584.522 215.4056 L-2577.522 210.4056 L-2570.522 215.4056 L-2577.522 220.4056 Z" clip-path="url(#clipPath2)"/>
      <path fill="none" d="M-2533.0347 2.5473 L-2569.4946 2.5473" clip-path="url(#clipPath2)"/>
      <path fill="white" d="M-2584.4946 2.5473 L-2568.4946 8.5473 L-2568.4946 -3.4527 Z" clip-path="url(#clipPath2)" stroke="none"/>
      <path fill="none" d="M-2584.4946 2.5473 L-2568.4946 8.5473 L-2568.4946 -3.4527 Z" clip-path="url(#clipPath2)"/>
      <path fill="none" d="M-2972.303 -142.9867 L-2939.8369 -105.1592" clip-path="url(#clipPath2)"/>
      <path fill="white" d="M-2930.0679 -93.7765 L-2935.9353 -109.8257 L-2945.0413 -102.0104 Z" clip-path="url(#clipPath2)" stroke="none"/>
      <path fill="none" d="M-2930.0679 -93.7765 L-2935.9353 -109.8257 L-2945.0413 -102.0104 Z" clip-path="url(#clipPath2)"/>
      <path fill="none" d="M-2722.4902 -142.9867 L-2754.9563 -105.1592" clip-path="url(#clipPath2)"/>
      <path fill="white" d="M-2764.7256 -93.7766 L-2749.752 -102.0103 L-2758.8582 -109.8257 Z" clip-path="url(#clipPath2)" stroke="none"/>
      <path fill="none" d="M-2764.7256 -93.7766 L-2749.752 -102.0103 L-2758.8582 -109.8257 Z" clip-path="url(#clipPath2)"/>
    </g>
  </g>
</svg>
